<?xml version="1.0" encoding="iso-8859-1"?>
<!-- Uploaded to: SVG Repo, www.svgrepo.com, Generator: SVG Repo Mixer Tools -->
<svg fill="#000000" height="800px" width="800px" version="1.1" id="Layer_1" xmlns="http://www.w3.org/2000/svg" xmlns:xlink="http://www.w3.org/1999/xlink" 
	 viewBox="0 0 512.001 512.001" xml:space="preserve">
<g>
	<g>
		<path d="M489.744,278.256h-16.696v-33.392h16.696c12.388,0,20.482-13.067,14.933-24.162L439.656,90.659V61.207
			c0-9.221-7.475-16.696-16.696-16.696c-9.221,0-16.696,7.475-16.696,16.696v29.452l-65.021,130.042
			c-5.54,11.076,2.524,24.162,14.933,24.162h16.696v33.392h-66.784V166.949h27.827c12.858,0,20.911-13.985,14.422-25.109
			L270.422,8.272c-6.422-11.008-22.397-11.051-28.844,0L163.663,141.84c-6.478,11.104,1.543,25.109,14.422,25.109h27.827v111.307
			h-66.784v-33.392h16.696c12.388,0,20.482-13.067,14.933-24.162L105.735,90.659V61.207c0-9.221-7.475-16.696-16.696-16.696
			s-16.696,7.475-16.696,16.696v29.452L7.322,220.701c-5.54,11.076,2.524,24.162,14.933,24.162h16.696v33.392H22.255
			c-9.221,0-16.696,7.475-16.696,16.696v200.353c0,9.221,7.475,16.696,16.696,16.696c7.426,0,458.654,0,467.489,0
			c9.221,0,16.696-7.475,16.696-16.696V294.952C506.441,285.731,498.965,278.256,489.744,278.256z M422.96,131.933l39.769,79.539
			c-8.634,0-67.306,0-79.539,0L422.96,131.933z M256,49.821l48.847,83.736c-11.342,0-87.817,0-97.694,0L256,49.821z M89.039,131.933
			l39.769,79.539c-8.634,0-67.306,0-79.539,0L89.039,131.933z M272.696,478.609h-33.392v-83.48c0-9.206,7.49-16.696,16.696-16.696
			c9.206,0,16.696,7.49,16.696,16.696V478.609z M473.048,478.609H306.088v-83.48c0-27.619-22.47-50.088-50.088-50.088
			c-27.619,0-50.088,22.47-50.088,50.088v83.48H38.951V311.648h16.696c9.221,0,16.696-7.475,16.696-16.696v-50.088h33.392v50.088
			c0,9.221,7.475,16.696,16.696,16.696h100.176c9.221,0,16.696-7.475,16.696-16.696V166.949h33.392v128.003
			c0,9.221,7.475,16.696,16.696,16.696h100.176c9.221,0,16.696-7.475,16.696-16.696v-50.088h33.392v50.088
			c0,9.221,7.475,16.696,16.696,16.696h16.696V478.609z"/>
	</g>
</g>
<g>
	<g>
		<path d="M389.568,345.04c-27.619,0-50.088,22.47-50.088,50.088v33.392c0,9.221,7.475,16.696,16.696,16.696h66.784
			c9.221,0,16.696-7.475,16.696-16.696v-33.392C439.656,367.51,417.187,345.04,389.568,345.04z M406.264,411.824h-33.392v-16.696
			c0-9.206,7.49-16.696,16.696-16.696c9.206,0,16.696,7.49,16.696,16.696V411.824z"/>
	</g>
</g>
<g>
	<g>
		<path d="M122.431,345.04c-27.619,0-50.088,22.47-50.088,50.088v33.392c0,9.221,7.475,16.696,16.696,16.696h66.784
			c9.221,0,16.696-7.475,16.696-16.696v-33.392C172.519,367.51,150.05,345.04,122.431,345.04z M139.127,411.824h-33.392v-16.696
			c0-9.206,7.49-16.696,16.696-16.696c9.206,0,16.696,7.49,16.696,16.696V411.824z"/>
	</g>
</g>
</svg>